HIERARCHY
ROOT simHips
{
  OFFSET 6.13146 95.3961 -0.669452
  CHANNELS 6 Xposition Yposition Zposition Zrotation Xrotation Yrotation
  JOINT simSpine
  {
    OFFSET -0.000360269 21.3001 -0.0169217
    CHANNELS 3 Zrotation Xrotation Yrotation
    JOINT simLeftArm
    {
      OFFSET 13.5181 21.3012 -2.3511e-005
      CHANNELS 3 Zrotation Xrotation Yrotation
      JOINT simLeftForeArm
      {
        OFFSET 24.5783 0 -6.3921e-005
        CHANNELS 3 Zrotation Xrotation Yrotation
        JOINT simLeftHand
        {
          OFFSET 24.5783 0 0
          CHANNELS 3 Zrotation Xrotation Yrotation
          End Site
          {
            OFFSET 7.32568 1.52588e-005 0.0169305
          }
        }
      }
    }
    JOINT simHead
    {
      OFFSET 0 27.4458 -0.00488811
      CHANNELS 3 Zrotation Xrotation Yrotation
      End Site
      {
        OFFSET 0 0 0
      }
    }
    JOINT simRightArm
    {
      OFFSET -13.5174 21.3012 -1.52733e-005
      CHANNELS 3 Zrotation Xrotation Yrotation
      JOINT simRightForeArm
      {
        OFFSET -24.5783 -0.000552281 0.000112897
        CHANNELS 3 Zrotation Xrotation Yrotation
        JOINT simRightHand
        {
          OFFSET -24.5783 0 1.19926e-005
          CHANNELS 3 Zrotation Xrotation Yrotation
          End Site
          {
            OFFSET -7.32568 1.52588e-005 0.0169305
          }
        }
      }
    }
  }
  JOINT simRightUpLeg
  {
    OFFSET -8.44614 -9.41038 0.835682
    CHANNELS 3 Zrotation Xrotation Yrotation
    JOINT simRightLeg
    {
      OFFSET -3.23466e-005 -40.9639 0
      CHANNELS 3 Zrotation Xrotation Yrotation
      JOINT simRightFoot
      {
        OFFSET 0 -40.9639 0
        CHANNELS 3 Zrotation Xrotation Yrotation
        End Site
        {
          OFFSET 0.50614 -9.67405 14.6709
        }
      }
    }
  }
  JOINT simLeftUpLeg
  {
    OFFSET 8.44614 -9.41038 0.835681
    CHANNELS 3 Zrotation Xrotation Yrotation
    JOINT simLeftLeg
    {
      OFFSET -0.00018133 -40.964 6.2497e-005
      CHANNELS 3 Zrotation Xrotation Yrotation
      JOINT simLeftFoot
      {
        OFFSET 0 -40.9639 0
        CHANNELS 3 Zrotation Xrotation Yrotation
        End Site
        {
          OFFSET -0.50614 -9.67405 14.6709
        }
      }
    }
  }
}
MOTION
Frames:	23
Frame Time:	0.0333333
8.62699 98.2146 342.401 10.0667 -2.80062 -48.1993 14.5876 8.57554 6.6876 -54.0867 -10.882 16.0413 -0.00133277 -1.30388e-005 -98.592 -20.1687 -48.5658 -30.5291 -10.2207 0.390404 9.19087 52.2927 4.58509 35.4472 -0.000207898 -4.91257e-005 103.295 162.637 -11.7543 -148.986 -33.1961 -8.60963 -25.6346 1.37637e-006 33.3156 0.0320032 21.2 -20.1311 4.48311 18.4366 -33.9856 36.304 7.22005e-006 28.8678 0.0333838 -5.43995 5.93192 0.448952 
9.45711 97.9806 342.034 11.2083 -1.52207 -48.137 14.4084 9.78612 6.56513 -56.2277 -9.71773 16.4313 -0.0013327 -1.25561e-005 -98.2717 -18.2582 -46.9881 -29.7755 -9.48165 -1.88001 9.21723 53.5378 4.42826 35.013 -0.000226004 -3.49466e-005 99.4153 165.143 -12.2439 -148.945 -33.8409 -11.4581 -26.5851 3.4666e-006 34.8812 0.0503631 21.4199 -20.0046 4.2767 20.2519 -36.3578 32.3541 -5.69458e-006 31.7513 0.105071 -5.2273 8.88976 0.381547 
10.1588 97.597 341.94 12.01 0.156472 -48.1715 13.9913 10.7334 5.96319 -58.3328 -8.73775 16.5431 -0.00133239 -1.02399e-005 -96.738 -17.2237 -44.7707 -29.7565 -8.14627 -3.83712 10.1089 54.8007 4.77021 35.0644 0.000138778 -1.73549e-005 94.6599 166.794 -12.5537 -150.129 -34.0279 -14.0715 -27.5663 -1.31707e-005 36.3138 0.0620203 21.7702 -19.912 4.21265 22.5455 -37.7247 28.8212 1.81513e-005 34.1003 0.111823 -9.10429 8.35471 0.296456 
10.8015 97.0701 342.025 12.5946 1.99032 -48.2675 13.1125 11.6817 5.52077 -60.2343 -7.58499 16.1931 -0.00133207 -6.96533e-006 -94.5776 -15.6241 -43.2889 -29.6436 -6.79056 -5.75022 10.9175 55.987 5.20248 35.3492 0.000366615 2.32354e-006 89.3768 167.754 -12.8816 -152.144 -34.0822 -16.6168 -28.4927 -0.00272269 37.9195 0.0667847 22.2248 -19.9396 4.23048 24.6558 -38.3296 26.1343 -4.01625e-005 34.5409 0.0978259 -12.9272 6.8255 -0.143088 
11.4388 96.475 342.206 12.9932 3.98383 -48.0858 11.9171 12.7502 5.34247 -62.039 -6.05257 15.2334 -0.00133182 -2.15431e-006 -91.4144 -15.0075 -42.0816 -30.966 -5.44365 -7.96971 11.1754 57.0353 5.30777 35.6656 -0.000201266 2.14862e-005 84.2274 168.713 -13.8109 -154.274 -34.092 -18.8756 -29.6836 -0.00312239 39.5426 0.0634801 22.7474 -19.9847 4.2908 26.2495 -38.9232 23.8418 -0.000111575 33.5213 0.0603638 -16.4611 4.23474 -1.52146 
12.073 95.886 342.393 13.1687 6.25713 -47.5556 10.5997 13.9243 5.34679 -63.3394 -4.73144 14.1772 -0.00133181 2.00521e-006 -88.6835 -14.4541 -41.5092 -30.4176 -3.99006 -10.3901 11.6356 58.1924 5.28935 36.1792 -0.166599 4.02482e-005 79.1401 169.158 -14.8569 -156.613 -33.9223 -20.8914 -31.1587 -0.00211615 41.1328 0.0561583 23.2464 -20.036 4.3042 28.3329 -40.6428 24.1715 0.000178569 33.2627 0.0321509 -18.0994 2.60747 -2.87456 
12.6099 95.3473 342.581 13.1605 8.6831 -46.6478 9.07909 15.107 5.54634 -64.3185 -3.50658 12.8549 -0.00133197 5.64945e-006 -86.2886 -13.9958 -40.9955 -28.7451 -2.56704 -12.7874 11.7976 59.071 4.85165 36.9629 -0.00283196 5.78865e-005 74.2777 169.191 -16.0653 -158.818 -33.59 -22.5469 -32.8673 -0.00137508 42.5719 0.0494989 23.6744 -20.1082 4.25251 31.1787 -43.5536 26.1363 0.000262202 34.8573 0.0231028 -18.4562 2.10555 -4.21867 
12.9767 94.8359 342.792 12.9869 10.9503 -45.4106 7.29927 16.2221 6.12271 -65.1862 -2.1317 11.2397 -0.00133228 9.18518e-006 -83.9588 -12.1611 -40.083 -27.6993 -1.55749 -14.2698 11.2483 60.2698 4.27629 37.8144 0.00257106 7.46585e-005 69.5441 168.885 -18.5953 -161.651 -33.2336 -23.6783 -34.6049 9.86647e-006 43.8259 0.0438067 24.0867 -20.2463 4.156 34.1886 -46.5993 28.4948 -0.00342077 37.0296 0.0193497 -18.3535 1.89479 -5.44151 
13.1998 94.3751 343.068 12.8051 12.8607 -43.9875 5.17562 17.2372 6.94469 -65.9111 -1.47666 9.49686 -0.0013326 1.18405e-005 -82.2028 -10.3839 -39.0953 -28.8061 -1.20568 -14.9241 9.93719 61.8183 3.51396 38.8379 0.00484633 8.88898e-005 65.411 168.854 -20.3315 -163.662 -33.0762 -24.3042 -36.3347 0.00216538 44.8684 0.0385205 24.4532 -20.3989 4.09513 36.7043 -49.326 30.5673 -0.00413109 38.9713 0.0148648 -18.1309 1.6232 -6.42443 
13.2863 93.9698 343.356 12.5607 14.6937 -42.5066 3.37932 17.6842 8.01022 -66.5171 -1.20556 8.0168 -0.00133283 1.34332e-005 -81.146 -9.97039 -39.0098 -29.1911 -1.31293 -14.7808 9.199 63.1675 2.67268 39.6538 0.00664411 0.000100281 62.0028 169.767 -21.3179 -164.168 -32.8441 -24.7151 -37.994 0.00196605 45.7612 0.0366579 24.7825 -20.6153 4.04055 39.0635 -51.7968 32.1793 0.00334683 40.5549 0.00984928 -18.126 1.49537 -7.43245 
13.2509 93.6341 343.661 12.1594 16.1939 -40.9693 1.89559 17.9237 9.30468 -67.0402 -0.906215 6.74031 -0.00133295 1.4156e-005 -80.6654 -9.19288 -38.5474 -28.1361 -1.33913 -14.7609 7.90086 63.693 1.9648 40.5354 0.00799509 0.000110426 58.874 170.258 -22.28 -164.405 -32.5439 -24.7286 -39.4007 0.00131433 46.4616 0.0356696 25.0798 -20.9011 3.9725 40.9663 -53.7677 33.3331 -0.0332746 41.7923 0.00434742 -18.1302 1.37449 -8.39529 
13.1129 93.3857 343.958 11.5343 17.1614 -39.495 0.563325 18.2409 10.6276 -67.4967 -0.53063 5.66721 -0.00133308 1.49278e-005 -80.1516 -7.6333 -37.53 -27.7227 -1.55938 -14.9649 6.57985 63.7767 1.46268 41.3984 0.00892847 0.000118059 56.451 170.091 -22.5837 -165.397 -32.0717 -24.246 -40.3027 0.000452846 46.8979 0.0354416 25.3216 -21.1989 3.87371 42.0594 -55.0432 33.7877 0.00284028 42.6988 -0.0035319 -18.1703 1.15992 -9.30549 
12.8964 93.206 344.243 10.8498 17.689 -38.107 -0.541912 18.2672 11.7555 -67.7494 -0.303804 5.07971 -0.00133315 1.53419e-005 -79.8755 -7.21435 -37.7021 -27.2653 -2.22124 -15.3531 5.79366 63.6869 1.27478 42.359 0.00947509 0.000124553 54.3348 169.575 -22.9531 -166.66 -31.5722 -23.4558 -40.8449 -0.000491677 47.1599 0.0359468 25.5265 -21.5264 3.74603 42.536 -55.8069 33.7166 -0.00570906 43.3541 -0.0126546 -18.2792 0.910595 -10.0702 
12.5955 93.0949 344.523 10.1677 17.8078 -36.8255 -1.34653 17.7893 12.7143 -67.8983 -0.152932 4.60316 -0.00133329 1.60991e-005 -79.3702 -7.30071 -38.4633 -25.8887 -2.53181 -15.4583 5.13654 63.5368 1.17896 43.3616 0.0096647 0.00012942 52.7113 170.288 -23.6785 -166.54 -31.0478 -22.3587 -41.091 -0.00123714 47.1948 0.0370463 25.6911 -21.8778 3.61 42.3589 -56.1225 33.1184 -0.00165812 43.7874 -0.0233738 -18.4757 0.633163 -10.7495 
12.2284 93.0282 344.785 9.44708 17.4721 -35.7196 -1.89416 17.2071 13.6481 -68.0763 0.0761595 4.23461 -0.00133349 1.71396e-005 -78.6744 -7.52917 -39.1776 -26.3235 -2.77214 -15.4623 3.91684 63.0361 1.38772 44.2355 0.00952713 0.000132363 51.7124 170.424 -24.5006 -165.295 -30.4968 -20.9303 -41.0509 -0.00156219 47.0385 0.0386472 25.8064 -22.2596 3.54158 41.6842 -55.9097 32.1369 -0.000496672 44.1008 -0.0351875 -18.7367 0.316396 -11.3962 
11.7728 93.0233 345.032 8.67477 16.6362 -34.8382 -2.34292 16.8054 14.4113 -68.2116 -0.0807966 4.00927 -0.00133363 1.78161e-005 -78.2211 -7.51953 -39.3846 -27.1606 -2.85584 -15.4598 2.94014 62.3454 1.91891 45.3846 0.00909374 0.000134916 50.8347 170.082 -25.1083 -164.794 -29.9007 -19.1418 -40.6409 4.85034e-005 46.6851 0.0406196 25.8387 -22.6462 3.49487 40.4944 -55.0566 30.7294 0.00716691 44.2626 -0.0476914 -19.0497 -0.0365134 -11.9819 
11.262 93.0533 345.273 7.86064 15.2987 -34.1548 -2.53525 16.4841 15.0967 -68.3157 -0.390769 4.02721 -0.00133369 1.81258e-005 -78.0133 -8.06366 -39.7705 -27.7875 -2.82163 -15.2604 2.31625 61.6429 2.37605 46.4922 0.00839374 0.000135846 50.5121 170.676 -25.3608 -164.253 -29.4002 -17.0241 -39.9009 -0.000133778 46.2813 0.0450757 25.8621 -23.0056 3.48271 38.8384 -53.6354 28.8991 7.17731e-006 44.3441 -0.0596701 -19.3621 -0.437365 -12.4517 
10.724 93.115 345.515 7.10703 13.8435 -33.6298 -2.30146 15.7519 15.6725 -68.4326 -0.585983 4.42251 -0.00133373 1.82747e-005 -77.9134 -8.81866 -40.8957 -28.3082 -2.65721 -14.8943 1.64448 60.997 2.78732 47.3773 0.00745701 0.000134727 50.8999 171.498 -26.2915 -163.779 -28.9738 -14.8545 -39.0993 -0.000136986 45.8099 0.0493645 25.8815 -23.2864 3.50099 37.1392 -52.0059 26.9716 -0.0174876 44.3354 -0.0705812 -19.6807 -0.850552 -12.7502 
10.1529 93.2052 345.744 6.37145 12.1518 -33.2606 -1.82519 14.9361 15.9584 -68.4516 -0.938141 5.12861 -0.00133378 1.85014e-005 -77.7611 -9.88957 -42.0677 -29.0445 -2.34571 -14.8004 1.55569 59.8137 3.65705 48.2324 0.00631483 0.000132771 51.5727 171.882 -26.8177 -163.306 -28.6304 -12.5333 -38.164 -2.90462e-005 45.2644 0.0535509 25.867 -23.5199 3.52822 35.3205 -50.0654 24.9703 -0.000184696 44.22 -0.0807729 -20.0104 -1.22803 -12.9601 
9.51887 93.3338 345.938 5.74124 10.2636 -33.0697 -1.47515 13.9843 15.8031 -68.2206 -1.69688 6.15353 -0.0013338 1.86307e-005 -77.6743 -10.4152 -42.3535 -30.0503 -1.82874 -14.534 1.47092 58.1864 5.26783 48.9813 0.00499677 0.000128961 52.8658 171.313 -26.5561 -161.12 -28.4341 -10.1444 -37.1208 5.53738e-005 44.6441 0.0577388 25.7667 -23.715 3.52605 33.5063 -47.8487 23.0807 0.00168689 43.975 -0.089263 -20.3241 -1.51207 -13.0878 
8.82492 93.4933 346.096 5.21531 8.34022 -33.0283 -1.12282 12.8192 15.5356 -67.8587 -2.57171 7.25357 -0.00133384 1.87894e-005 -77.5676 -11.5378 -42.7295 -31.1169 -1.21172 -14.2405 1.29575 56.8562 6.74728 49.3508 0.00353297 0.000122885 54.8834 171.388 -26.5519 -158.901 -28.3368 -7.79612 -36.0576 -4.63808e-005 43.9424 0.061999 25.6501 -23.8455 3.51985 31.8151 -45.4773 21.3786 -0.000260632 43.5734 -0.0968465 -20.6409 -1.74626 -13.1336 
8.12294 93.6644 346.231 4.70914 6.45242 -33.0702 -0.573948 11.5989 15.3074 -67.5575 -3.27724 8.26067 -0.00133387 1.89434e-005 -77.4641 -12.8485 -43.3701 -32.2321 -1.03261 -13.5907 1.43493 55.7527 7.94094 49.5332 0.00195528 0.000116431 56.9731 170.962 -26.0809 -158.065 -28.2654 -5.51395 -35.0041 -0.000112033 43.2198 0.0661452 25.5209 -23.9416 3.49974 30.313 -43.0313 19.8346 5.3201e-005 43.0419 -0.1035 -20.9601 -1.92438 -13.1125 
7.42624 93.8561 346.347 4.2914 4.61069 -33.1719 -0.0247066 10.2633 15.0341 -67.2361 -3.9211 9.17194 -0.00133393 1.91888e-005 -77.2989 -14.4006 -43.9847 -33.3903 -0.94777 -12.6302 1.6684 54.8411 8.98286 49.5727 0.000293616 0.000108987 59.324 171.546 -26.2421 -156.36 -28.3006 -3.32357 -34.0169 -2.83728e-005 42.4802 0.0699492 25.3865 -23.9808 3.48362 28.87 -40.5485 18.3757 0.00139837 42.3273 -0.109048 -21.2791 -2.04846 -12.9861 
